inDegrees=no
num_controls=7
num_derivatives=13
num_iterations=125
num_multipliers=7
num_parameters=0
num_slacks=7
num_states=26
objective=0.529752
objective_accelerations=0.012881
objective_balance=0.001981
objective_effort=0.021859
objective_height=0.481880
objective_ligament=0.011152
solver_duration=1616.799222
status=Solve_Succeeded
success=true
DataType=double
version=3
OpenSimVersion=4.5
endheader
time	/jointset/ground_pelvis/pelvis_tilt/value	/jointset/ground_pelvis/pelvis_tx/value	/jointset/ground_pelvis/pelvis_ty/value	/jointset/hip_l/hip_flexion_l/value	/jointset/hip_l/hip_adduction_l/value	/jointset/hip_l/hip_rotation_l/value	/jointset/back/lumbar_extension/value	/jointset/patellofemoral_l/patellar_flexion_l/value	/jointset/knee_l/knee_flexion_l/value	/jointset/knee_l/knee_adduction_l/value	/jointset/knee_l/knee_rotation_l/value	/jointset/ankle_l/ankle_angle_l/value	/jointset/subtalar_l/subtalar_angle_l/value	/jointset/ground_pelvis/pelvis_tilt/speed	/jointset/ground_pelvis/pelvis_tx/speed	/jointset/ground_pelvis/pelvis_ty/speed	/jointset/hip_l/hip_flexion_l/speed	/jointset/hip_l/hip_adduction_l/speed	/jointset/hip_l/hip_rotation_l/speed	/jointset/back/lumbar_extension/speed	/jointset/patellofemoral_l/patellar_flexion_l/speed	/jointset/knee_l/knee_flexion_l/speed	/jointset/knee_l/knee_adduction_l/speed	/jointset/knee_l/knee_rotation_l/speed	/jointset/ankle_l/ankle_angle_l/speed	/jointset/subtalar_l/subtalar_angle_l/speed	/forceset/tau_hip_flexion_l	/forceset/tau_hip_adduction_l	/forceset/tau_hip_rotation_l	/forceset/tau_knee_flexion_l	/forceset/tau_ankle_angle_l	/forceset/tau_subtalar_angle_l	/forceset/tau_lumbar_extension	lambda_cid13_p0	lambda_cid13_p1	lambda_cid13_p2	lambda_cid13_p3	lambda_cid13_p4	lambda_cid13_p5	lambda_cid14_p0	/jointset/ground_pelvis/pelvis_tilt/accel	/jointset/ground_pelvis/pelvis_tx/accel	/jointset/ground_pelvis/pelvis_ty/accel	/jointset/hip_l/hip_flexion_l/accel	/jointset/hip_l/hip_adduction_l/accel	/jointset/hip_l/hip_rotation_l/accel	/jointset/back/lumbar_extension/accel	/jointset/patellofemoral_l/patellar_flexion_l/accel	/jointset/knee_l/knee_flexion_l/accel	/jointset/knee_l/knee_adduction_l/accel	/jointset/knee_l/knee_rotation_l/accel	/jointset/ankle_l/ankle_angle_l/accel	/jointset/subtalar_l/subtalar_angle_l/accel	gamma_cid13_p0	gamma_cid13_p1	gamma_cid13_p2	gamma_cid13_p3	gamma_cid13_p4	gamma_cid13_p5	gamma_cid14_p0
0.5	-0.004801353818827026	-0.006484731449863072	0.9029276000900557	0.4398776106742746	-0.3028836820679172	-0.2533773334081325	-0.7236702365299218	0.3904327690785311	0.3904327690785386	-0.1484304372461456	-0.1744407566436118	-0.01508898886276491	-0.01249545365816099	0.1059533696017829	-0.144719122771327	-0.04970906771366195	0.2843861962244508	-0.01650886683029214	0.1145894308823708	-0.8580756768128945	0.3477878223742144	0.3477878223741922	0.05964271457245899	8.880920928628627e-05	-0.02179994966021878	-0.02566126586349012	-0.1820832814255139	0.03151574877707281	-0.000971619710365758	-0.1225723012452064	0.0954581882567847	0.03618940167601473	0.2647740879419163	-14.90882668385654	-15.67177946850713	4.974220983323507	-1.681634694803119	-707.3110195463847	-76.9912562349496	-23.83234251599285	0.08827487109313389	0.2589467281983093	0.05151039705631451	-0.7044448637587135	0.04331641484093905	-0.1817556125010699	0.819890642872805	-0.4753211035840638	-0.4753211035840687	-0.07493819481483666	0.00297480195904574	0.1200077633672642	0.08764531208728431	4.389087505825404e-09	-1.757640219471736e-08	-1.189688963961341e-08	-9.265417278220427e-09	1.227400235571323e-08	1.930823195936361e-09	-1.130783823656836e-09
0.51	-0.00373767901021282	-0.007918799241128718	0.9024331769312176	0.44268605184017	-0.3030465474201208	-0.2522408942660427	-0.7322086724146998	0.3938864685129644	0.3938864685129725	-0.1478376633270227	-0.1744399257113166	-0.0153009509755743	-0.01274760974259014	0.106775572954351	-0.1420758237026754	-0.04916254549519461	0.2772476151808175	-0.01605851749337003	0.1126774134324608	-0.8495002016771368	0.342894518213473	0.3428945182134616	0.05891215721246981	7.6158799800182e-05	-0.02059116285075534	-0.02476358938710264	-0.1854978707042647	0.0322503936185216	-0.0008800651799797101	-0.1222021603437896	0.09541151132637264	0.03669158185018227	0.2687255706333284	-14.97566229937633	-15.85735804417929	4.98003058041806	-1.820826134629115	-708.5198165157983	-76.97551982364601	-23.82555284780984	0.07828999658654347	0.2698113731156631	0.05817852021192011	-0.7267277801278715	0.04675099276274613	-0.1990717749710522	0.8930707187588565	-0.5049668259943645	-0.5049668259928939	-0.07210509773680074	-0.003569390168623547	0.1215105296447052	0.09178708230437466	4.799724920197703e-09	-1.604672795852916e-08	-1.290534639415631e-08	-9.604491498486976e-09	1.356471746614949e-08	2.23176915106503e-09	-8.158432205151361e-10
0.52	-0.002665962782223291	-0.009325876066324427	0.9019446100717583	0.4454214745845366	-0.303204737919026	-0.2511242046911992	-0.7406580145941539	0.397289508555055	0.3972895085550642	-0.1472521930997286	-0.1744392581686697	-0.01550078594230727	-0.01299059740887744	0.1075616534768352	-0.1393209295573396	-0.04853780783792782	0.2697825119186953	-0.01557389617065083	0.1106395174331474	-0.8402569357481152	0.3376559439057238	0.3376559439057213	0.05818197620664688	5.613127961323568e-05	-0.01937452044493904	-0.02382758223511938	-0.1889124599830156	0.03298503845996999	-0.000788510649592454	-0.121832019442373	0.0953648343959604	0.03719376202434928	0.2726770533247406	-15.04575163676084	-16.04261086684122	4.986066901900839	-1.966616897840982	-709.7854636491877	-76.96571186350695	-23.81776816832597	0.08105030507638374	0.2812657435351841	0.06715348481620322	-0.7697493074564409	0.05017081200035774	-0.2069313223817534	0.95344880152556	-0.5443751329856287	-0.5443751329856111	-0.0748629239815911	0.001499379813532568	0.1215788826378376	0.09531144720643768	5.173064968205097e-09	-1.471170538015111e-08	-1.387450256905925e-08	-9.917083369744362e-09	1.468388640399342e-08	2.524371165420535e-09	-5.329993500218724e-10
0.53	-0.001586567916396264	-0.01070487308993329	0.901462675323495	0.4480806826384146	-0.3033579127428259	-0.2500284955003464	-0.7490116553272479	0.4006384911106977	0.4006384911106938	-0.1466740090192777	-0.1744388171811001	-0.01568842278168198	-0.01322403817341608	0.1083124431909595	-0.1364623633508673	-0.04783637168768952	0.2620075340641232	-0.01505648276192195	0.1084833321335558	-0.8303680239952246	0.3320852265070228	0.3320852265070095	0.05745337622641294	3.145318373438369e-05	-0.01815368595721393	-0.02285607389966551	-0.1921837822504939	0.03366357106697596	-0.0007073693668666389	-0.1215070177560846	0.09531072426086604	0.03768628605080206	0.2764930549300778	-15.11472835411498	-16.22400404331063	4.991646891055621	-2.08412064073007	-710.9709174335493	-76.96476928078785	-23.80903311611698	0.0713615891487622	0.2905668149863015	0.07355725353262128	-0.7891065285141792	0.05321807546524754	-0.2228092556621599	1.022090393480574	-0.5717210737890793	-0.5717210737907413	-0.07208149448288	-0.004545501347026007	0.1222099304430354	0.09874885821502291	5.514587577071834e-09	-1.294895769846625e-08	-1.461538199753657e-08	-1.014627348007559e-08	1.572641953428536e-08	2.810039285803371e-09	-2.211677902118661e-10
